<?xml version="1.0" encoding="utf-8"?>
<!-- Generator: Adobe Illustrator 26.0.0, SVG Export Plug-In . SVG Version: 6.00 Build 0)  -->
<svg version="1.1" id="Calque_1" xmlns="http://www.w3.org/2000/svg" xmlns:xlink="http://www.w3.org/1999/xlink" x="0px" y="0px"
	 viewBox="0 0 817 275" style="enable-background:new 0 0 817 275;" xml:space="preserve">
<style type="text/css">
	.st0{fill:#E11836;}
	.st1{fill:#A7A9AC;}
</style>
<g>
	<path class="st0" d="M192.1,35.4c-9.3,0-18.1,4.8-28.5,15.4c-11.4,11.8-21.5,30.6-27.6,54.6h-18.6l-0.8,3.4h18.6
		c-5.5,20-12.5,54.1-13.2,56.9c-1,4.5-5.7,10-11.2,10c-5.7,0-6.3-5.3-6.3-9.3v-55.3c0-16.2-19-24.5-35-24.5
		C48.4,86.6,37,98.4,37,109.2c0,7.2,3.4,11.8,9.3,11.8c5.5,0,9.7-3.8,9.7-8.9c0-9.5-7-7.2-7-12.2c0-7.6,14.3-9.9,20.5-9.9
		c8,0,17.3,2.3,17.3,12.2v25.9h-4c-21.7,0-53.2,5.9-53.2,29.5c0,14.3,9.9,22.6,26.4,22.6c13.9,0,23.4-3.6,30.6-13.1H87
		c1.5,7.4,8.6,13.1,18.6,13.1c6.5,0,11.1-2.3,14.7-6.1c-3.8,17.3-7.3,32.5-10.5,42.4c-5.7,17.5-13.9,20.7-17.5,20.7
		c-1.9,0-3.2-0.6-3.2-2.1c0-2.5,4-2.5,4-8.6c0-5.1-3.8-8.6-9.5-8.6c-4.9,0-9.5,4.2-9.5,10.5c0,5.9,5.5,12.2,12.7,12.2
		c13.3,0,21.7-5.7,36.1-34.8c9.5-19.2,17.2-54,29.7-97h22.1l0.6-3.4H153l6.5-24c2.7-10.1,14.1-42.6,26.8-42.6c1.3,0,3,0,3,1.7
		c0,1.9-3.4,3-3.4,8.6c0,4.6,4,9.1,10.1,9.1c5.5,0,10.1-4,10.1-9.7C206.2,40.7,199.7,35.4,192.1,35.4z M86.7,159.2
		c0,4.2-7,16-22.8,16c-13.5,0-15.4-8.9-15.4-20.7c0-22.6,19.2-23,34.6-23h3.6L86.7,159.2L86.7,159.2z"/>
</g>
<g>
	<path d="M252.4,101.6l7.1-21.9h0.2l6.6,21.9H252.4z M252.9,123.5v-1.9h-7l5.7-17.8h15.5l5.6,17.8h-6.6v1.9h20.4v-1.9h-5.7
		l-16.7-52.9h-3.2l-17.6,52.9h-6.4v1.9H252.9z"/>
	<path d="M290.8,123.5v-1.9h6.2v-52h-6.2v-1.9h3.5c3,0,6.2-0.2,9.1-0.7v54.6h6.2v1.9H290.8z"/>
	<path d="M313.4,123.5v-1.9h6.2v-52h-6.2v-1.9h3.5c3,0,6.2-0.2,9.1-0.7v54.6h6.2v1.9H313.4z"/>
	<path d="M336.8,123.5v-1.9h5.4V93.3h-5.4v-1.9h2.7c3,0,6.2-0.1,9.1-0.8v31h4.8v1.9L336.8,123.5L336.8,123.5z M345.3,70.1
		c1.9,0,4.1,1.8,4.1,3.9c0,2.5-1.8,4.3-4.1,4.3s-3.9-1.9-3.9-4.3C341.4,71.9,343.3,70.1,345.3,70.1z"/>
	<path d="M377.2,114.1c0,3.4-1.1,4.3-1.8,4.9c-1.9,1.7-3.6,2.3-6.2,2.3c-3.7,0-6.2-2.4-6.2-6.4c0-7.4,9-8.3,14.2-8.4V114.1z
		 M388,117.9c-0.4,1.4-1.2,3.6-2.8,3.6c-1.7,0-1.7-1.3-1.7-3.7V98.5c0-3.2,0-7.9-11-7.9c-9.6,0-13,4.9-13,7.8c0,2.3,1.2,3.9,3.4,3.9
		c2,0,3.3-1.4,3.3-3.4c0-2.7-2.4-3.1-2.4-3.7c0-2.3,5.7-2.9,7.5-2.9c2.8,0,5.8,1.1,5.8,4.9v7.7c-12.4,0-20.1,4.2-20.3,11.7
		c0,6,4.4,7.9,9.5,7.9c4.1,0,8.2-1.5,10.9-4.9c0.6,3,2.3,4.9,5.3,4.9c3.7,0,6.6-2.8,6.9-6.6H388z"/>
	<path d="M396.8,93.3h-4.5v-1.9h1.7c1.5,0,3.1,0,4.5-0.2c1.5-0.1,3.1-0.3,4.5-0.6v8.6h0.2c2.3-5.1,5.4-8.6,11.3-8.6
		c2.9,0,9.6,0.6,9.6,8.1v22.9h4.4v1.9h-14.9v-1.9h4.2V99.7c0-5.9-1.9-6.8-5.1-6.8c-5.5,0-9.7,7.5-9.7,13.6v15.1h4.4v1.9h-15.1v-1.9
		h4.5L396.8,93.3L396.8,93.3z"/>
	<path d="M460.4,113.5c-1.9,5.7-5.1,10.8-13.5,11.1c-12.5,0-16.4-10.4-16.4-16c0-14.4,11.6-17.9,16.2-17.9c5.3,0,12.7,2.4,12.7,8.7
		c0,2.2-1.4,4.3-3.6,4.3c-2.2,0-3.8-1.5-3.8-3.8c0-3.2,2.6-3.6,2.6-4.5c0-2.2-5.1-3.1-6.9-3.1c-7.8,0-9.8,5.7-9.8,16.3
		c0,4.9,1.2,8.6,1.7,9.7c1.2,2.7,3.7,4.4,7.9,4.6c4.7,0.2,9.2-3.6,11.2-9.4L460.4,113.5L460.4,113.5z"/>
	<path d="M472.2,102.7c0.1-2,0.3-3.9,0.8-5.3c0.2-0.6,2.3-5.1,7.2-5.1c4,0,7.4,1.9,7.4,7.7v2.8h-15.4V102.7z M493.1,113.5
		c-1.1,5.3-6.6,9.4-11.2,9.4c-8.8,0-9.9-6.5-9.9-14.5v-3.3h23c-0.1-8.8-6.3-14.4-14.6-14.4c-9.6,0-15.9,8.7-15.9,18.3
		c0,9,7.9,15.6,16.2,15.6c7.1,0,12.6-3.6,14.2-11.1H493.1z"/>
	<path class="st1" d="M499.7,123.5v-1.9h6.6V71.3h-6.6v-1.9h39.5l0.6,14.3h-1.5c-2.5-9.8-3.9-12.5-14-12.5H514v23.6
		c7.2-0.1,10.4-0.3,11.3-8.4h1.9v19.9h-1.8c-0.6-8.3-3.8-9.5-11.3-9.5v24.8h7v1.9H499.7z"/>
	<path class="st1" d="M548.2,98.3h0.2c1.5-3.6,4.7-7.6,9.1-7.6c2.8,0,4.9,1.5,4.9,4.5c0,2-2.1,3-3.8,3c-1.5,0-3.2-1.6-3.2-3.2
		c0-0.6,0.3-1.4,0.3-1.7c0-0.5-0.5-0.5-0.7-0.5c-0.1,0-2.8,1.1-4.6,4.8c-1.1,2.3-2,5.5-2,8.7v15.4h6.2v1.9h-18.1v-1.9h5.5V93.4h-5.5
		v-1.9h2.5c3,0,6.2-0.1,9.1-0.8L548.2,98.3L548.2,98.3z"/>
	<path class="st1" d="M584.4,114.1c0,3.4-1.1,4.3-1.8,4.9c-1.9,1.7-3.6,2.3-6.2,2.3c-3.7,0-6.2-2.4-6.2-6.4c0-7.4,9-8.3,14.2-8.4
		V114.1z M595.2,117.9c-0.4,1.4-1.2,3.6-2.8,3.6c-1.7,0-1.7-1.3-1.7-3.7V98.5c0-3.2,0-7.9-11-7.9c-9.6,0-13,4.9-13,7.8
		c0,2.3,1.2,3.9,3.4,3.9c2,0,3.3-1.4,3.3-3.4c0-2.7-2.4-3.1-2.4-3.7c0-2.3,5.7-2.9,7.5-2.9c2.8,0,5.8,1.1,5.8,4.9v7.7
		c-12.4,0-20.1,4.2-20.3,11.7c0,6,4.4,7.9,9.5,7.9c4.1,0,8.2-1.5,10.9-4.9c0.6,3,2.3,4.9,5.3,4.9c3.7,0,6.6-2.8,6.9-6.6H595.2z"/>
	<path class="st1" d="M603.4,93.3H599v-1.9h1.7c1.5,0,3.1,0,4.5-0.2c1.5-0.1,3.1-0.3,4.5-0.6v8.6h0.2c2.3-5.1,5.4-8.6,11.3-8.6
		c2.9,0,9.6,0.6,9.6,8.1v22.9h4.4v1.9h-14.9v-1.9h4.2V99.7c0-5.9-1.9-6.8-5.1-6.8c-5.5,0-9.7,7.5-9.7,13.6v15.1h4.4v1.9H599v-1.9
		h4.5L603.4,93.3L603.4,93.3z"/>
	<path class="st1" d="M649.9,128.3c0.9-0.2,1.9-0.4,2.8-0.4c1.7,0,5.4,1.3,5.4,5c0,4.8-4.9,6.1-8.8,6.1c-1.8,0-4.3-0.4-5.9-1.1
		l1-2.2c1.3,0.4,2.8,0.9,4.2,0.9c2,0,4.4-0.7,4.4-3c0-2-1.9-2.8-3.1-2.8c-1.3,0.1-0.7,0-2.2,0.4l-1.3-0.4l3.2-7.2h2.5L649.9,128.3z
		 M665.9,113.5c-1.9,5.7-5.1,10.8-13.5,11.1c-12.5,0-16.4-10.4-16.4-16c0-14.4,11.6-17.9,16.2-17.9c5.3,0,12.7,2.4,12.7,8.7
		c0,2.2-1.4,4.3-3.6,4.3c-2.2,0-3.8-1.5-3.8-3.8c0-3.2,2.6-3.6,2.6-4.5c0-2.2-5.1-3.1-6.9-3.1c-7.8,0-9.8,5.7-9.8,16.3
		c0,4.9,1.2,8.6,1.7,9.7c1.2,2.7,3.7,4.4,7.9,4.6c4.7,0.2,9.2-3.6,11.2-9.4L665.9,113.5L665.9,113.5z"/>
	<path class="st1" d="M689.3,114.1c0,3.4-1.1,4.3-1.8,4.9c-1.9,1.7-3.6,2.3-6.2,2.3c-3.7,0-6.2-2.4-6.2-6.4c0-7.4,9-8.3,14.2-8.4
		V114.1z M700.1,117.9c-0.4,1.4-1.2,3.6-2.8,3.6c-1.7,0-1.7-1.3-1.7-3.7V98.5c0-3.2,0-7.9-11-7.9c-9.6,0-12.9,4.9-12.9,7.8
		c0,2.3,1.2,3.9,3.4,3.9c2,0,3.3-1.4,3.3-3.4c0-2.7-2.4-3.1-2.4-3.7c0-2.3,5.7-2.9,7.5-2.9c2.8,0,5.8,1.1,5.8,4.9v7.7
		c-12.4,0-20.1,4.2-20.3,11.7c0,6,4.4,7.9,9.5,7.9c4.1,0,8.2-1.5,10.9-4.9c0.6,3,2.3,4.9,5.3,4.9c3.7,0,6.6-2.8,6.9-6.6H700.1z"/>
	<path class="st1" d="M703.3,123.5v-1.9h5.4V93.3h-5.4v-1.9h2.7c3,0,6.2-0.1,9.1-0.8v31h4.8v1.9L703.3,123.5L703.3,123.5z
		 M711.8,70.1c1.9,0,4.1,1.8,4.1,3.9c0,2.5-1.8,4.3-4.1,4.3s-3.9-1.9-3.9-4.3C707.9,71.9,709.8,70.1,711.8,70.1z"/>
	<path class="st1" d="M745.5,91.5v9.1h-1.8c-1.2-4.7-4-8-8.8-8.3c-6.6-0.2-7.6,4.9-7.6,5.9c0,2.3,0.6,3.6,13,6.1
		c6.2,1.3,8.4,4.1,8.4,9.2c0,7-5.3,11.1-11.7,11.1c-3.4,0-7-1.4-9.3-4l-1.8,2.9h-1.8v-10.7h1.9c1.5,5.8,5.5,10.1,11.5,10.1
		c3.6,0,7.9-2.8,7.9-7c0-3.2-4.5-4.6-11.2-6.3c-5.3-1.3-10-2-10-9.1c0-3.4,2.1-10,10.9-10c2.5,0,5,1,7.5,3l1.5-2.2h1.4V91.5z"/>
	<path class="st1" d="M760.1,102.7c0.1-2,0.3-3.9,0.8-5.3c0.2-0.6,2.3-5.1,7.2-5.1c4,0,7.4,1.9,7.4,7.7v2.8h-15.4V102.7z M781,113.5
		c-1.1,5.3-6.6,9.4-11.2,9.4c-8.8,0-9.9-6.5-9.9-14.5v-3.3h22.9c-0.1-8.8-6.3-14.4-14.6-14.4c-9.6,0-15.9,8.7-15.9,18.3
		c0,9,7.9,15.6,16.2,15.6c7.1,0,12.6-3.6,14.2-11.1H781z"/>
</g>
<g>
	<path class="st0" d="M405.9,203.5h6.8v-50c-1-0.1-1.8-0.1-2.7-0.1c-7.9,0-10.9,3.6-12.9,13.8h-1.8l0.7-15.8h41.8l0.6,15.5h-2
		c-1.2-9.7-4.9-13.5-13.3-13.5c-0.7,0-1.5,0-2.2,0.1v50h6.7v2.1h-21.7L405.9,203.5L405.9,203.5z"/>
	<path class="st0" d="M446.9,173.3c9.1,0,15.6,7.1,15.6,16.5s-7.1,16.6-15.7,16.6c-9.1,0-15.6-7.2-15.6-16.6
		S438.2,173.3,446.9,173.3z M446.9,204.9c6.7,0,8.2-5,8.2-14.9c0-9.7-0.9-14.9-8.1-14.9c-6.8,0-8.2,4.9-8.2,14.8
		C438.8,199.6,439.8,204.9,446.9,204.9z"/>
	<path class="st0" d="M466.5,203.6h5.4v-27.8h-5.3v-1.7c4.3,0,8.2-0.2,11.6-0.7v8.1c2.7-5.3,5.9-7.8,9.6-7.8c3,0,4.7,1.5,4.7,4.2
		c0,2-1.3,3.4-3.5,3.4c-2,0-3.5-1.6-3.5-3.4c0-0.6,0.2-1,0.2-1.3c0-0.4-0.1-0.6-0.3-0.6c-2.7,0-7.1,6-7.1,11.8v16h6v1.9h-18v-2.1
		H466.5z"/>
	<path class="st0" d="M510.1,173.3c9.1,0,15.6,7.1,15.6,16.5s-7.1,16.6-15.7,16.6c-9.1,0-15.6-7.2-15.6-16.6
		S501.4,173.3,510.1,173.3z M510,204.9c6.7,0,8.2-5,8.2-14.9c0-9.7-0.9-14.9-8.1-14.9c-6.8,0-8.2,4.9-8.2,14.8
		C501.9,199.6,502.9,204.9,510,204.9z"/>
	<path class="st0" d="M530.4,203.6h4.4v-27.8h-4.4v-1.7h1.5c3.4,0,6.4-0.2,9.2-0.7v9.1c2.4-6.1,6.6-9.2,12.2-9.2
		c5.7,0,9.1,3.2,9.1,8.8v21.6h4.3v1.9h-15.2v-1.9h4.7v-21.8c0-4.1-1.6-6.1-5.1-6.1c-5.1,0-9.8,5.8-9.8,13.7v14.2h4.4v1.9h-15.2v-2
		H530.4z"/>
	<path class="st0" d="M574.9,175.8h-4.6v-1.7h4.6v-10c0.7,0.1,1.5,0.1,2.1,0.1c1.4,0,2.8-0.1,4-0.3v10.2h7.3v1.7H581v23.3
		c0,3.2,0.4,4.5,3.1,4.5c1.5,0,3-1,4.4-3l1.3,1c-2.5,3.4-4.9,4.9-8.6,4.9c-4.5,0-6.5-2.1-6.5-6.7v-24H574.9z"/>
	<path class="st0" d="M609.2,173.3c9.1,0,15.6,7.1,15.6,16.5s-7.1,16.6-15.7,16.6c-9.1,0-15.6-7.2-15.6-16.6
		S600.5,173.3,609.2,173.3z M609.2,204.9c6.7,0,8.2-5,8.2-14.9c0-9.7-0.9-14.9-8.1-14.9c-6.8,0-8.2,4.9-8.2,14.8
		C601.1,199.6,602.1,204.9,609.2,204.9z"/>
</g>
</svg>
